<svg width="2000" height="2000" viewBox="0 0 2000 2000" fill="none" xmlns="http://www.w3.org/2000/svg">
<rect width="2000" height="2000" fill="#0E7BFE"/>
<circle cx="1000" cy="1000" r="114" fill="#D9D9D9"/>
<path d="M1192.87 961.892C1188.58 939.246 1177.73 909.789 1158.93 884.998C1140.77 859.866 1116.25 839.74 1095.92 828.757C1085.6 823.683 1077.14 818.814 1070.63 817.026C1064.35 814.676 1060.76 813.331 1060.76 813.331C1060.76 813.331 1059.85 812.99 1058.17 812.36C1056.4 811.952 1053.84 811.322 1050.57 810.555C1047.34 809.721 1043.35 808.682 1038.86 807.508C1034.18 806.929 1028.92 806.18 1023.23 805.175C1015.97 804.358 1007.68 804.085 999.05 804.102C998.42 804.102 997.807 804 997.16 804C994.946 804 992.801 804.255 990.621 804.341C987.556 804.46 984.611 804.528 981.495 804.8C881.614 812.803 803 896.236 803 998.177C803 1006.23 803.647 1014.13 804.601 1021.88C804.873 1024.14 805.265 1026.29 805.622 1028.5C806.252 1032.61 806.933 1036.66 807.836 1040.69C811.207 1056.55 816.026 1071.05 821.474 1082.61C831.027 1103.69 840.987 1115.8 840.987 1115.8C840.987 1115.8 843.286 1118.92 847.287 1124.38C849.314 1127.09 852.396 1129.88 855.477 1133.46C858.508 1137.1 862.135 1140.98 866.664 1144.68C883.521 1160.65 909.913 1177.86 939.183 1187.48C968.282 1197.48 1000.21 1198.23 1023.26 1195.64C1028.95 1194.64 1034.21 1193.89 1038.89 1193.31C1043.42 1192.13 1047.37 1191.09 1050.61 1190.26C1053.88 1189.48 1056.48 1188.86 1058.2 1188.45C1059.9 1187.82 1060.79 1187.48 1060.79 1187.48C1060.79 1187.48 1064.38 1186.14 1070.67 1183.79C1077.22 1182.02 1085.63 1177.11 1095.95 1172.06C1116.28 1161.07 1140.8 1140.95 1158.97 1115.82C1177.77 1091.03 1188.61 1061.55 1192.9 1038.91C1194.5 1027.45 1196.29 1017.98 1196.07 1011.08C1196.5 1004.29 1196.75 1000.41 1196.75 1000.41C1196.75 1000.41 1196.5 996.525 1196.07 989.731C1196.26 982.852 1194.47 973.385 1192.87 961.892ZM947.134 1108.32C978.583 994.618 947.134 1108.32 978.583 994.618C959.138 986.769 945.414 967.715 945.414 945.444C945.414 916.174 969.15 892.439 998.403 892.439C1027.69 892.439 1051.41 916.174 1051.41 945.444C1051.41 965.366 1040.41 982.733 1024.15 991.792C1054.42 1108.32 1054.42 1108.32 1054.42 1108.32C1054.42 1108.32 951.102 1108.32 947.134 1108.32Z" fill="black"/>
<path fill-rule="evenodd" clip-rule="evenodd" d="M0 1013.89V2000H946.481H2000V1000V0H1018.25H0V1013.89ZM1096.1 252.181C1204.79 310.479 1347.08 387.34 1413.47 423.632C1450.45 443.847 1519.38 481.229 1566.64 506.694C1695.05 575.896 1712.94 587.389 1736.02 615.514L1757.17 641.271L1759.44 999.451C1760.9 1230.94 1758.98 1366.33 1754.01 1382.19C1742.89 1417.7 1709.8 1445.57 1627.8 1488.52C1538.66 1535.22 1385.78 1615.62 1222.94 1701.44C1045.29 1795.08 1037.2 1798.55 996.668 1798.58C961.745 1798.61 909.473 1779.4 864.291 1749.92C854.017 1743.22 827.119 1728.44 804.517 1717.08C781.915 1705.72 672.64 1648.52 561.684 1589.97C450.729 1531.41 349.777 1478.53 337.344 1472.47C291.094 1449.87 259.713 1422.15 248.02 1393.56C237.649 1368.19 236.431 1319.47 238.284 1002.96L240.398 641.333L259.078 615.431C271.698 597.931 300.77 577.049 348.739 551.035C387.779 529.854 449.981 495.986 486.967 475.764C523.952 455.535 599.604 414.688 655.081 384.979C710.559 355.278 789.484 312.292 830.466 289.451C975.874 208.431 1006.51 204.132 1096.1 252.181ZM968.896 331.611C954.513 338.285 942.745 345.799 942.745 348.299C942.745 350.799 960.834 382.472 982.95 418.681L1023.16 484.521L1066.84 489.118C1241.16 507.444 1407.47 612.667 1490.98 757.458C1524.87 816.222 1555.21 898.132 1548.82 913.611C1545.17 922.451 1521.35 923.938 1392.64 923.333C1309.11 922.938 1237.59 920.5 1233.71 917.903C1229.83 915.312 1221.61 904.097 1215.45 892.979C1196.12 858.076 1141.99 812.264 1097.56 793.215C1036.8 767.16 959.706 766.917 900.753 792.611C770.759 849.25 714.9 980.007 771.028 1096.26C794.878 1145.65 847.315 1194.91 900.029 1217.44C949.791 1238.71 1047.21 1238.33 1098.4 1216.67C1127.44 1204.38 1148.29 1201.39 1204.88 1201.39C1288.65 1201.39 1292.73 1207.04 1239.75 1249.74C1158.54 1315.19 1041.17 1347.94 941.101 1333.09C914.098 1329.08 886.206 1322.92 879.115 1319.38C868.572 1314.14 861.945 1319.35 842.84 1347.92C829.981 1367.14 819.46 1387.26 819.46 1392.63C819.46 1404.28 876.104 1420.54 950.216 1430.16C1071.24 1445.86 1205.62 1404.96 1303.52 1322.61C1327.95 1302.06 1361.01 1266.41 1376.97 1243.38L1405.99 1201.51L1568.06 1201.45C1657.2 1201.42 1731.7 1199.04 1733.59 1196.18C1735.5 1193.32 1719.03 1178.47 1697 1163.19L1656.93 1135.42L1656.5 909.722C1656.26 785.59 1653.5 680.264 1650.35 675.667C1645.41 668.437 1532.89 605.715 1237.88 445.715C1103.21 372.681 1002.5 319.521 998.783 319.493C996.728 319.479 983.279 324.931 968.896 331.611ZM794.296 343.875C791.688 350.188 787.399 372.375 784.769 393.181C779.419 435.5 777.865 436.965 688.704 484.076C457.363 606.299 348.298 669.396 344.734 683.056C342.605 691.229 341.79 846.021 342.933 1027.03L345.003 1356.15L365.819 1370.58C394.279 1390.33 403.94 1383.25 450.796 1308.28L489.395 1246.53L462.482 1173.61C437.279 1105.32 435.561 1095.19 435.374 1013.89C435.098 894.264 461.951 809.757 530.243 715.278C564.695 667.625 663.196 582.556 713.167 557.306L757.803 534.743L808.096 614.597C835.764 658.514 859.561 694.444 860.981 694.444C862.401 694.444 882.926 689.757 906.589 684.028C1031.12 653.882 1152.73 685.243 1248.84 772.299L1300.89 819.444H1351.58C1379.45 819.444 1402.26 817.5 1402.26 815.118C1402.26 812.736 1387.17 791.139 1368.73 767.125C1324.78 709.875 1269.58 665.736 1200.52 632.597C1136.85 602.042 1086.18 590.278 1018.25 590.278C982.749 590.278 968.433 587.299 959.885 578.125C950.396 567.938 883.479 463.424 825.385 368.056C805.04 334.653 799.787 330.569 794.296 343.875ZM687.957 699.854C544.821 816.646 501.387 1033.98 588.807 1195.98C600.605 1217.83 610.251 1240.48 610.251 1246.31C610.251 1256.15 512.505 1414.8 469.924 1474.08C459.583 1488.48 453.045 1502.04 455.398 1504.22C457.752 1506.41 480.197 1499.64 505.273 1489.18C557.769 1467.28 554.19 1466.52 651.346 1520.29C684.221 1538.49 733.916 1564.91 761.786 1579.01C813.894 1605.38 818.975 1608.05 920.329 1662.33C953.205 1679.94 988.509 1694.35 998.783 1694.35C1009.06 1694.36 1056.13 1673.79 1103.39 1648.63C1150.65 1623.48 1202.76 1595.84 1219.2 1587.21C1639.49 1366.5 1634.23 1369.35 1646.96 1355.06C1660.19 1340.19 1658.66 1307.88 1644.48 1302.83C1621.58 1294.66 1480.3 1298.25 1468.56 1307.29C1462.37 1312.07 1442.99 1332.3 1425.51 1352.24C1358.74 1428.44 1241.65 1493.59 1122.07 1521.06C1003.22 1548.35 859.173 1532.9 748.845 1481.02C702.632 1459.3 670.025 1437.15 670.04 1427.51C670.04 1423.46 691.895 1386.34 718.606 1345.03C745.311 1303.72 767.158 1268.24 767.158 1266.19C767.158 1264.14 751.721 1246.5 732.848 1226.99C611.215 1101.25 608.577 922.493 726.385 788.729L762.608 747.604L743.749 716.215C733.386 698.951 721.797 683.951 718.009 682.889C714.221 681.826 700.697 689.458 687.957 699.854ZM1036.86 910.194C1054.78 922.055 1058.56 929.528 1058.56 953.049C1058.56 968.722 1053.62 986.618 1047.57 992.826C1037.86 1002.8 1038.72 1009.96 1055.05 1054.8C1065.19 1082.68 1071.62 1108.32 1069.32 1111.78C1064.24 1119.42 933.876 1120.25 928.832 1112.67C926.867 1109.7 932.097 1084.08 940.466 1055.72C952.122 1016.19 953.728 1001.26 947.34 991.757C942.76 984.938 939.009 967.042 939.009 951.986C939.009 902.972 991.842 880.403 1036.86 910.194Z" fill="black"/>
</svg>
